<?xml version="1.0" encoding="utf-8"?>
<svg version="1.1" xmlns:xlink="http://www.w3.org/1999/xlink" width="19px" height="17px" xmlns="http://www.w3.org/2000/svg">
  <g transform="matrix(1 0 0 1 -911 -37 )">
    <path d="M 11.65234375 10.42578125  C 12.653345352564104 9.530148237179485  13.153846153846153 8.452323717948717  13.153846153846153 7.192307692307693  C 13.153846153846153 5.932291666666665  12.653345352564104 4.854467147435896  11.65234375 3.9588341346153846  C 10.651342147435898 3.0632011217948705  9.446714743589745 2.6153846153846154  8.038461538461538 2.6153846153846154  C 6.630208333333334 2.6153846153846154  5.425580929487181 3.0632011217948705  4.424579326923077 3.9588341346153846  C 3.4235777243589745 4.854467147435896  2.9230769230769234 5.932291666666665  2.9230769230769234 7.192307692307693  C 2.9230769230769234 8.452323717948717  3.4235777243589745 9.530148237179485  4.424579326923077 10.42578125  C 5.425580929487181 11.321414262820511  6.630208333333334 11.769230769230768  8.038461538461538 11.769230769230768  C 9.446714743589745 11.769230769230768  10.651342147435898 11.321414262820511  11.65234375 10.42578125  Z M 18.57752403846154 14.772836538461538  C 18.85917467948718 15.024839743589745  19 15.33133012820513  19 15.692307692307693  C 19 16.04647435897436  18.85536858974359 16.352964743589745  18.56610576923077 16.611778846153847  C 18.27684294871795 16.87059294871795  17.934294871794872 17  17.53846153846154 17  C 17.127403846153847 17  16.78485576923077 16.87059294871795  16.510817307692307 16.611778846153847  L 12.59435096153846 13.117788461538462  C 11.231770833333334 13.962339743589745  9.713141025641027 14.384615384615385  8.038461538461538 14.384615384615385  C 6.949919871794872 14.384615384615385  5.908954326923077 14.195612980769232  4.915564903846153 13.817608173076923  C 3.922175480769231 13.439603365384615  3.0658052884615383 12.928786057692307  2.346454326923077 12.28515625  C 1.6271033653846154 11.641526442307693  1.056189903846154 10.875300480769232  0.6337139423076923 9.986478365384615  C 0.21123798076923078 9.09765625  0 8.166266025641024  0 7.192307692307693  C 0 6.218349358974357  0.21123798076923078 5.286959134615384  0.6337139423076923 4.398137019230769  C 1.056189903846154 3.5093149038461533  1.6271033653846154 2.7430889423076934  2.346454326923077 2.0994591346153846  C 3.0658052884615383 1.4558293269230775  3.922175480769231 0.9450120192307689  4.915564903846153 0.5670072115384621  C 5.908954326923077 0.1890024038461534  6.949919871794872 0  8.038461538461538 0  C 9.127003205128206 0  10.16796875 0.1890024038461534  11.161358173076923 0.5670072115384621  C 12.154747596153847 0.9450120192307689  13.01111778846154 1.4558293269230775  13.73046875 2.0994591346153846  C 14.44981971153846 2.7430889423076934  15.020733173076923 3.5093149038461533  15.443209134615383 4.398137019230769  C 15.865685096153847 5.286959134615384  16.076923076923077 6.218349358974357  16.076923076923077 7.192307692307693  C 16.076923076923077 8.690705128205128  15.60496794871795 10.049479166666666  14.661057692307693 11.268629807692307  L 18.57752403846154 14.772836538461538  Z " fill-rule="nonzero" fill="#404040" stroke="none" transform="matrix(1 0 0 1 911 37 )" />
  </g>
</svg>