<?xml version="1.0" encoding="utf-8"?>
<svg version="1.1" xmlns:xlink="http://www.w3.org/1999/xlink" width="35px" height="41px" xmlns="http://www.w3.org/2000/svg">
  <g transform="matrix(1 0 0 1 -472 0 )">
    <path d="M 34.767578125 29.642252604166664  C 34.922526041666664 30.985785590277775  35 32.41384548611111  35 33.92643229166667  C 35 35.86610243055556  34.43033854166667 37.52994791666667  33.291015625 38.91796875  C 32.151692708333336 40.30598958333333  30.779947916666668 41  29.17578125 41  L 5.82421875 41  C 4.220052083333333 41  2.848307291666667 40.30598958333333  1.7089843750000002 38.91796875  C 0.5696614583333335 37.52994791666667  0 35.86610243055556  0 33.92643229166667  C 0 32.41384548611111  0.07747395833333351 30.985785590277775  0.2324218750000002 29.642252604166664  C 0.38736979166666685 28.29871961805555  0.6744791666666669 26.9462890625  1.0937500000000002 25.5849609375  C 1.5130208333333337 24.2236328125  2.0462239583333335 23.05805121527778  2.693359375 22.088216145833336  C 3.340494791666667 21.118381076388886  4.197265625 20.326497395833332  5.263671875 19.712565104166668  C 6.330078125 19.0986328125  7.555989583333334 18.791666666666668  8.94140625 18.791666666666668  C 11.329427083333334 21.069444444444443  14.182291666666668 22.208333333333336  17.5 22.208333333333336  C 20.81770833333334 22.208333333333336  23.670572916666668 21.069444444444443  26.05859375 18.791666666666668  C 27.444010416666668 18.791666666666668  28.669921875 19.0986328125  29.736328125 19.712565104166668  C 30.802734375 20.326497395833332  31.659505208333336 21.118381076388886  32.306640625 22.088216145833336  C 32.95377604166667 23.05805121527778  33.486979166666664 24.2236328125  33.90625 25.5849609375  C 34.325520833333336 26.9462890625  34.612630208333336 28.29871961805555  34.767578125 29.642252604166664  Z M 24.923828125 3.0029296875  C 26.974609375 5.0048828125  28 7.420572916666668  28 10.25  C 28 13.079427083333332  26.974609375 15.4951171875  24.923828125 17.4970703125  C 22.873046875 19.4990234375  20.3984375 20.5  17.5 20.5  C 14.6015625 20.5  12.126953125 19.4990234375  10.076171875 17.4970703125  C 8.025390625 15.4951171875  7 13.079427083333332  7 10.25  C 7 7.420572916666668  8.025390625 5.0048828125  10.076171875 3.0029296875  C 12.126953125 1.0009765625  14.6015625 0  17.5 0  C 20.3984375 0  22.873046875 1.0009765625  24.923828125 3.0029296875  Z " fill-rule="nonzero" fill="#f2f2f2" stroke="none" transform="matrix(1 0 0 1 472 0 )" />
  </g>
</svg>