<?xml version="1.0" encoding="utf-8"?>
<svg version="1.1" xmlns:xlink="http://www.w3.org/1999/xlink" width="54px" height="32px" xmlns="http://www.w3.org/2000/svg">
  <g transform="matrix(1 0 0 1 -158 -1468 )">
    <path d="M 40.093191964285715 25.069444444444443  C 44.12109375000001 22.819444444444443  47.470982142857146 19.79629629629629  50.142857142857146 16  C 47.089285714285715 11.62962962962963  43.262276785714285 8.36111111111111  38.661830357142854 6.194444444444443  C 39.887276785714285 8.120370370370367  40.5 10.203703703703702  40.5 12.444444444444443  C 40.5 15.870370370370367  39.179129464285715 18.800925925925924  36.537388392857146 21.23611111111111  C 33.89564732142858 23.67129629629629  30.716517857142858 24.88888888888889  27 24.88888888888889  C 23.283482142857146 24.88888888888889  20.10435267857143 23.67129629629629  17.462611607142858 21.23611111111111  C 14.820870535714288 18.800925925925924  13.5 15.870370370370367  13.5 12.444444444444443  C 13.5 10.203703703703702  14.112723214285715 8.120370370370367  15.338169642857142 6.194444444444443  C 10.737723214285715 8.36111111111111  6.9107142857142865 11.62962962962963  3.8571428571428568 16  C 6.529017857142858 19.79629629629629  9.87890625 22.819444444444443  13.906808035714286 25.069444444444443  C 17.934709821428573 27.319444444444443  22.299107142857142 28.444444444444443  27 28.444444444444443  C 31.700892857142854 28.444444444444443  36.06529017857144 27.319444444444443  40.093191964285715 25.069444444444443  Z M 28.024553571428573 6.277777777777779  C 28.305803571428573 6.018518518518519  28.446428571428573 5.703703703703702  28.446428571428573 5.333333333333332  C 28.446428571428573 4.962962962962962  28.305803571428573 4.648148148148145  28.024553571428573 4.388888888888889  C 27.743303571428577 4.129629629629626  27.40178571428571 3.9999999999999964  27 4  C 24.48883928571429 3.9999999999999964  22.334263392857146 4.828703703703702  20.536272321428573 6.486111111111111  C 18.738281250000004 8.143518518518519  17.839285714285715 10.12962962962963  17.839285714285715 12.444444444444443  C 17.839285714285715 12.814814814814813  17.97991071428572 13.12962962962963  18.261160714285715 13.38888888888889  C 18.542410714285715 13.648148148148145  18.883928571428573 13.777777777777779  19.285714285714285 13.777777777777779  C 19.687500000000004 13.777777777777779  20.02901785714286 13.648148148148145  20.310267857142858 13.38888888888889  C 20.591517857142858 13.12962962962963  20.732142857142858 12.814814814814813  20.732142857142858 12.444444444444443  C 20.732142857142858 10.851851851851851  21.344866071428573 9.49074074074074  22.5703125 8.36111111111111  C 23.79575892857143 7.231481481481481  25.27232142857143 6.666666666666664  27 6.666666666666668  C 27.40178571428571 6.666666666666664  27.743303571428577 6.5370370370370345  28.024553571428573 6.277777777777779  Z M 53.39732142857143 14.083333333333332  C 53.799107142857146 14.731481481481481  54 15.370370370370367  54 16  C 54 16.629629629629626  53.799107142857146 17.26851851851852  53.39732142857143 17.916666666666664  C 50.58482142857144 22.175925925925924  46.80301339285715 25.587962962962965  42.05189732142857 28.15277777777778  C 37.30078125 30.71759259259259  32.283482142857146 32  27 32  C 21.71651785714286 32  16.69921875 30.712962962962965  11.948102678571429 28.13888888888889  C 7.196986607142858 25.564814814814813  3.415178571428572 22.157407407407405  0.6026785714285714 17.916666666666664  C 0.20089285714285712 17.26851851851852  0 16.629629629629626  0 16  C 0 15.370370370370367  0.20089285714285712 14.731481481481481  0.6026785714285714 14.083333333333332  C 3.415178571428572 9.842592592592592  7.196986607142858 6.435185185185183  11.948102678571429 3.8611111111111107  C 16.69921875 1.2870370370370345  21.71651785714286 0  27 0  C 32.283482142857146 0  37.30078125 1.2870370370370345  42.05189732142857 3.8611111111111107  C 46.80301339285715 6.435185185185183  50.58482142857144 9.842592592592592  53.39732142857143 14.083333333333332  Z " fill-rule="nonzero" fill="#404040" stroke="none" transform="matrix(1 0 0 1 158 1468 )" />
  </g>
</svg>