<?xml version="1.0" encoding="utf-8"?>
<svg version="1.1" xmlns:xlink="http://www.w3.org/1999/xlink" width="207px" height="33px" xmlns="http://www.w3.org/2000/svg">
  <defs>
    <mask fill="white" id="clip1">
      <path d="M 0 28  L 0 5  C 0 2.1999999999999993  2.2000000000000455 0  5 0  L 146.23404255319156 0  L 202 0  C 204.79999999999995 0  207 2.1999999999999993  207 5  L 207 28  C 207 30.799999999999997  204.79999999999995 33  202 33  L 5 33  C 2.2000000000000455 33  0 30.799999999999997  0 28  Z " fill-rule="evenodd" />
    </mask>
  </defs>
  <g transform="matrix(1 0 0 1 -250 -8 )">
    <path d="M 0 28  L 0 5  C 0 2.1999999999999993  2.2000000000000455 0  5 0  L 146.23404255319156 0  L 202 0  C 204.79999999999995 0  207 2.1999999999999993  207 5  L 207 28  C 207 30.799999999999997  204.79999999999995 33  202 33  L 5 33  C 2.2000000000000455 33  0 30.799999999999997  0 28  Z " fill-rule="nonzero" fill="#e6e6e6" stroke="none" transform="matrix(1 0 0 1 250 8 )" />
    <path d="M 0 28  L 0 5  C 0 2.1999999999999993  2.2000000000000455 0  5 0  L 146.23404255319156 0  L 202 0  C 204.79999999999995 0  207 2.1999999999999993  207 5  L 207 28  C 207 30.799999999999997  204.79999999999995 33  202 33  L 5 33  C 2.2000000000000455 33  0 30.799999999999997  0 28  Z " stroke-width="2" stroke="#797979" fill="none" transform="matrix(1 0 0 1 250 8 )" mask="url(#clip1)" />
  </g>
</svg>