<?xml version="1.0" encoding="utf-8"?>
<svg version="1.1" xmlns:xlink="http://www.w3.org/1999/xlink" width="29px" height="27px" xmlns="http://www.w3.org/2000/svg">
  <g transform="matrix(1 0 0 1 -259 -2533 )">
    <path d="M 4.474609375 22.537860576923077  C 4.713758680555556 22.33233173076923  4.833333333333333 22.088942307692307  4.833333333333333 21.807692307692307  C 4.833333333333333 21.52644230769231  4.713758680555556 21.283052884615387  4.474609375 21.077524038461537  C 4.235460069444445 20.87199519230769  3.952256944444445 20.769230769230766  3.625 20.769230769230766  C 3.297743055555556 20.769230769230766  3.014539930555556 20.87199519230769  2.775390625 21.077524038461537  C 2.5362413194444446 21.283052884615387  2.4166666666666665 21.52644230769231  2.4166666666666665 21.807692307692307  C 2.4166666666666665 22.088942307692307  2.5362413194444446 22.33233173076923  2.775390625 22.537860576923077  C 3.014539930555556 22.743389423076923  3.297743055555556 22.846153846153847  3.625 22.846153846153847  C 3.952256944444445 22.846153846153847  4.235460069444445 22.743389423076923  4.474609375 22.537860576923077  Z M 26.177408854166668 13.775841346153847  C 26.448025173611114 13.278245192307692  26.583333333333332 12.840144230769228  26.583333333333332 12.461538461538462  C 26.583333333333332 11.909855769230766  26.337890625 11.425781249999998  25.847005208333332 11.009314903846153  C 25.356119791666668 10.592848557692307  24.796006944444446 10.384615384615383  24.166666666666668 10.384615384615383  L 17.520833333333332 10.384615384615383  C 17.520833333333332 9.757211538461537  17.822916666666668 8.894531249999998  18.427083333333332 7.79657451923077  C 19.03125 6.6986177884615365  19.333333333333332 5.830528846153845  19.333333333333332 5.192307692307692  C 19.333333333333332 4.132211538461536  19.131944444444443 3.3479567307692286  18.729166666666668 2.8395432692307705  C 18.326388888888893 2.331129807692306  17.520833333333336 2.0769230769230758  16.3125 2.0769230769230758  C 15.985243055555555 2.3581730769230744  15.74609375 2.817908653846152  15.595052083333332 3.4561298076923084  C 15.444010416666668 4.094350961538462  15.252061631944445 4.773137019230766  15.019205729166668 5.49248798076923  C 14.786349826388891 6.211838942307691  14.411892361111114 6.8040865384615365  13.895833333333334 7.26923076923077  C 13.618923611111112 7.518028846153845  13.134331597222223 8.010216346153843  12.442057291666666 8.74579326923077  C 12.391710069444446 8.799879807692307  12.246961805555557 8.96213942307692  12.0078125 9.232572115384617  C 11.768663194444446 9.503004807692307  11.570421006944446 9.724759615384615  11.4130859375 9.897836538461538  C 11.255750868055557 10.07091346153846  11.038628472222223 10.300781249999998  10.76171875 10.587439903846153  C 10.484809027777779 10.874098557692307  10.233072916666666 11.112079326923075  10.006510416666666 11.301382211538462  C 9.779947916666666 11.490685096153843  9.537651909722221 11.682692307692305  9.279622395833334 11.877403846153847  C 9.021592881944446 12.072115384615383  8.769856770833334 12.218149038461538  8.5244140625 12.315504807692308  C 8.278971354166668 12.412860576923075  8.055555555555557 12.461538461538462  7.854166666666666 12.461538461538462  L 7.25 12.461538461538462  L 7.25 22.846153846153847  L 7.854166666666666 22.846153846153847  C 8.01779513888889 22.846153846153847  8.21603732638889 22.862379807692307  8.448893229166666 22.894831730769234  C 8.681749131944446 22.927283653846153  8.889431423611112 22.962439903846153  9.071940104166666 23.000300480769234  C 9.254448784722223 23.038161057692307  9.493598090277779 23.09765625  9.789388020833334 23.178786057692307  C 10.08517795138889 23.259915865384617  10.305447048611112 23.322115384615383  10.4501953125 23.365384615384617  C 10.59494357638889 23.408653846153847  10.818359375 23.47626201923077  11.120442708333334 23.568209134615383  C 11.422526041666666 23.66015625  11.605034722222223 23.716947115384617  11.66796875 23.73858173076923  C 14.323784722222223 24.528245192307693  16.476128472222225 24.923076923076923  18.125 24.923076923076923  L 20.409505208333332 24.923076923076923  C 22.826171875 24.923076923076923  24.034505208333332 24.01983173076923  24.034505208333332 22.213341346153847  C 24.034505208333332 21.932091346153847  24.003038194444446 21.629206730769234  23.940104166666668 21.3046875  C 24.317708333333332 21.131610576923077  24.61664496527778 20.84765625  24.8369140625 20.452824519230766  C 25.057183159722225 20.057992788461537  25.167317708333332 19.660456730769226  25.167317708333332 19.260216346153847  C 25.167317708333332 18.85997596153846  25.054036458333332 18.486778846153847  24.827473958333332 18.140625  C 25.49457465277778 17.599759615384613  25.828125 16.956129807692307  25.828125 16.209735576923077  C 25.828125 15.939302884615383  25.765190972222225 15.639122596153845  25.639322916666668 15.309194711538462  C 25.513454861111114 14.979266826923077  25.356119791666668 14.72235576923077  25.167317708333332 14.538461538461538  C 25.570095486111114 14.527644230769228  25.906792534722225 14.273437499999998  26.177408854166668 13.775841346153847  Z M 27.565104166666668 9.540865384615383  C 28.521701388888886 10.362980769230765  29 11.331129807692307  29 12.4453125  C 29 13.408052884615383  28.691623263888886 14.28966346153846  28.074869791666668 15.090144230769234  C 28.188151041666668 15.447115384615383  28.244791666666668 15.8203125  28.244791666666668 16.209735576923077  C 28.244791666666668 17.04266826923077  28.005642361111114 17.82151442307692  27.52734375 18.546274038461537  C 27.565104166666668 18.7734375  27.583984375 19.006009615384613  27.583984375 19.243990384615383  C 27.583984375 20.33653846153846  27.206380208333332 21.299278846153843  26.451171875 22.132211538461537  C 26.463758680555557 23.63581730769231  25.928819444444446 24.823016826923073  24.846354166666668 25.693810096153847  C 23.763888888888893 26.564603365384617  22.335286458333332 27  20.560546875 27  L 19.880859375 27  L 18.125 27  C 16.916666666666668 27  15.72406684027778 26.878305288461537  14.547200520833332 26.634915865384617  C 13.37033420138889 26.391526442307693  12.0078125 26.037259615384617  10.459635416666666 25.572115384615383  C 8.999565972222223 25.139423076923073  8.13107638888889 24.923076923076923  7.854166666666666 24.923076923076923  L 2.4166666666666665 24.923076923076923  C 1.7495659722222223 24.923076923076923  1.1800130208333335 24.720252403846153  0.7080078125 24.314603365384617  C 0.23600260416666669 23.908954326923077  0 23.419471153846153  0 22.846153846153847  L 0 12.461538461538462  C 0 11.888221153846152  0.23600260416666669 11.39873798076923  0.7080078125 10.993088942307692  C 1.1800130208333335 10.587439903846153  1.7495659722222223 10.384615384615383  2.4166666666666665 10.384615384615383  L 7.58984375 10.384615384615383  C 8.042968750000002 10.125  8.905164930555557 9.286658653846153  10.176432291666666 7.869591346153846  C 10.90646701388889 7.05829326923077  11.579861111111112 6.365985576923075  12.196614583333334 5.79266826923077  C 12.498697916666666 5.522235576923075  12.722113715277779 5.059795673076921  12.866861979166666 4.405348557692308  C 13.011610243055557 3.75090144230769  13.203559027777779 3.0667067307692295  13.442708333333334 2.3527644230769242  C 13.68185763888889 1.6388221153846163  14.072048611111112 1.0546875  14.61328125 0.6003605769230755  C 15.104166666666668 0.20012019230769384  15.670572916666668 0  16.3125 0  C 17.369791666666668 0  18.320095486111114 0.175781250000002  19.163411458333332 0.52734375  C 20.006727430555557 0.878906249999998  20.648654513888893 1.4278846153846163  21.089192708333332 2.174278846153846  C 21.52973090277778 2.9206730769230758  21.75 3.9266826923076916  21.75 5.192307692307692  C 21.75 6.198317307692308  21.447916666666668 7.236778846153846  20.84375 8.307692307692308  L 24.166666666666668 8.307692307692308  C 25.475694444444446 8.307692307692308  26.608506944444446 8.718749999999998  27.565104166666668 9.540865384615383  Z " fill-rule="nonzero" fill="#404040" stroke="none" transform="matrix(1 0 0 1 259 2533 )" />
  </g>
</svg>