<?xml version="1.0" encoding="utf-8"?>
<svg version="1.1" xmlns:xlink="http://www.w3.org/1999/xlink" width="90px" height="26px" xmlns="http://www.w3.org/2000/svg">
  <defs>
    <mask fill="white" id="clip41">
      <path d="M 0 21  L 0 5  C 0 2.2000000000000455  2.385542168674748 0  5.421686746987952 0  L 32.32931726907479 0  L 84.57831325301206 0  C 87.61445783132525 0  90 2.2000000000000455  90 5  L 90 21  C 90 23.799999999999955  87.61445783132525 26  84.57831325301206 26  L 5.421686746987952 26  C 2.385542168674748 26  0 23.799999999999955  0 21  Z " fill-rule="evenodd" />
    </mask>
  </defs>
  <g transform="matrix(1 0 0 1 -749 -1243 )">
    <path d="M 0 21  L 0 5  C 0 2.2000000000000455  2.385542168674748 0  5.421686746987952 0  L 32.32931726907479 0  L 84.57831325301206 0  C 87.61445783132525 0  90 2.2000000000000455  90 5  L 90 21  C 90 23.799999999999955  87.61445783132525 26  84.57831325301206 26  L 5.421686746987952 26  C 2.385542168674748 26  0 23.799999999999955  0 21  Z " fill-rule="nonzero" fill="#f7b75f" stroke="none" transform="matrix(1 0 0 1 749 1243 )" />
    <path d="M 0 21  L 0 5  C 0 2.2000000000000455  2.385542168674748 0  5.421686746987952 0  L 32.32931726907479 0  L 84.57831325301206 0  C 87.61445783132525 0  90 2.2000000000000455  90 5  L 90 21  C 90 23.799999999999955  87.61445783132525 26  84.57831325301206 26  L 5.421686746987952 26  C 2.385542168674748 26  0 23.799999999999955  0 21  Z " stroke-width="2" stroke="#797979" fill="none" transform="matrix(1 0 0 1 749 1243 )" mask="url(#clip41)" />
  </g>
</svg>