<?xml version="1.0" encoding="utf-8"?>
<svg version="1.1" xmlns:xlink="http://www.w3.org/1999/xlink" width="38px" height="36px" xmlns="http://www.w3.org/2000/svg">
  <g transform="matrix(1 0 0 1 -27 -23 )">
    <path d="M 26.549107142857142 31.67075892857143  C 28.88169642857143 30.49888392857143  30.79724702380953 28.90848214285714  32.29575892857143 26.89955357142857  C 31.98474702380953 24.823660714285715  31.366257440476193 23.099330357142858  30.44029017857143 21.7265625  C 29.514322916666668 20.353794642857142  28.210193452380956 19.560267857142854  26.52790178571429 19.34598214285714  C 25.580729166666668 20.33705357142857  24.453311011904763 21.11049107142857  23.14564732142857 21.66629464285714  C 21.837983630952387 22.222098214285715  20.456101190476193 22.5  19 22.5  C 17.54389880952381 22.5  16.16201636904762 22.222098214285715  14.854352678571429 21.66629464285714  C 13.546688988095239 21.11049107142857  12.419270833333334 20.33705357142857  11.472098214285715 19.34598214285714  C 9.789806547619047 19.560267857142854  8.485677083333334 20.353794642857142  7.559709821428572 21.7265625  C 6.63374255952381 23.099330357142858  6.015252976190476 24.823660714285715  5.704241071428572 26.89955357142857  C 7.202752976190476 28.90848214285714  9.118303571428571 30.49888392857143  11.450892857142856 31.67075892857143  C 13.783482142857144 32.84263392857143  16.299851190476193 33.42857142857143  19 33.42857142857143  C 21.70014880952381 33.42857142857143  24.216517857142858 32.84263392857143  26.549107142857142 31.67075892857143  Z M 24.75725446428571 18.31138392857143  C 26.34765625 16.8046875  27.142857142857142 14.986607142857144  27.142857142857142 12.857142857142856  C 27.142857142857142 10.72767857142857  26.34765625 8.909598214285715  24.75725446428571 7.402901785714285  C 23.16685267857143 5.896205357142856  21.247767857142858 5.142857142857144  19 5.142857142857144  C 16.752232142857142 5.142857142857144  14.833147321428571 5.896205357142856  13.242745535714285 7.402901785714285  C 11.65234375 8.909598214285715  10.857142857142856 10.72767857142857  10.857142857142856 12.857142857142856  C 10.857142857142856 14.986607142857144  11.65234375 16.8046875  13.242745535714285 18.31138392857143  C 14.833147321428571 19.81808035714286  16.752232142857142 20.57142857142857  19 20.57142857142857  C 21.247767857142858 20.57142857142857  23.16685267857143 19.81808035714286  24.75725446428571 18.31138392857143  Z M 36.494419642857146 11.00892857142857  C 37.49813988095239 13.232142857142854  38 15.562499999999998  38 18  C 38 20.437499999999996  37.49813988095239 22.764508928571423  36.494419642857146 24.981026785714285  C 35.49069940476191 27.197544642857142  34.14415922619048 29.112723214285715  32.454799107142854 30.7265625  C 30.76543898809524 32.340401785714285  28.747395833333336 33.62276785714286  26.400669642857142 34.573660714285715  C 24.053943452380956 35.52455357142857  21.58705357142857 36  19 36  C 16.427083333333336 36  13.967261904761905 35.52455357142857  11.620535714285715 34.573660714285715  C 9.273809523809526 33.62276785714286  7.252232142857142 32.34375  5.555803571428572 30.73660714285714  C 3.859375 29.129464285714285  2.5093005952380953 27.214285714285715  1.505580357142857 24.99107142857143  C 0.501860119047619 22.767857142857142  0 20.437499999999996  0 18  C 0 15.562499999999998  0.501860119047619 13.232142857142854  1.505580357142857 11.00892857142857  C 2.5093005952380953 8.785714285714283  3.859375 6.870535714285715  5.555803571428572 5.263392857142856  C 7.252232142857142 3.65625  9.273809523809526 2.377232142857142  11.620535714285715 1.4263392857142851  C 13.967261904761905 0.4754464285714284  16.427083333333336 0  19 0  C 21.572916666666668 0  24.0327380952381 0.4754464285714284  26.37946428571429 1.4263392857142851  C 28.726190476190478 2.377232142857142  30.747767857142858 3.65625  32.44419642857143 5.263392857142856  C 34.14062500000001 6.870535714285715  35.49069940476191 8.785714285714283  36.494419642857146 11.00892857142857  Z " fill-rule="nonzero" fill="#ffffff" stroke="none" transform="matrix(1 0 0 1 27 23 )" />
  </g>
</svg>