<?xml version="1.0" encoding="utf-8"?>
<svg version="1.1" xmlns:xlink="http://www.w3.org/1999/xlink" width="16px" height="16px" xmlns="http://www.w3.org/2000/svg">
  <g transform="matrix(1 0 0 1 -318 -23 )">
    <path d="M 10.932692307692308 9.799621928166353  L 11.403846153846153 9.325771896660365  L 13.875 6.805293005671077  L 10.451923076923077 6.281033396345306  L 9.817307692307692 6.180214240705734  L 9.528846153846153 5.575299306868304  L 8 2.3289224952741012  L 8 12.037807183364839  L 8.567307692307692 12.350346565847511  L 11.625 14.044108380592313  L 11.048076923076923 10.465028355387524  L 10.932692307692308 9.799621928166353  Z M 15.98076923076923 6.084436042848141  C 16.03846153846154 6.269271161520688  15.961538461538463 6.469229153539171  15.75 6.6843100189035916  L 12.259615384615385 10.253308128544424  L 13.086538461538462 15.294265910522999  C 13.118589743589745 15.516068052930057  13.099358974358976 15.689140936777989  13.028846153846153 15.813484562066792  C 12.958333333333334 15.937828187355597  12.849358974358976 16  12.701923076923077 16  C 12.592948717948719 16  12.464743589743591 15.959672337744172  12.317307692307692 15.879017013232515  L 8 13.499684940138627  L 3.6826923076923075 15.879017013232515  C 3.5352564102564106 15.959672337744172  3.4070512820512824 16  3.298076923076923 16  C 3.150641025641026 16  3.041666666666667 15.937828187355597  2.9711538461538463 15.813484562066792  C 2.900641025641026 15.689140936777989  2.8814102564102564 15.516068052930057  2.9134615384615383 15.294265910522999  L 3.7403846153846154 10.253308128544424  L 0.2403846153846154 6.6843100189035916  C 0.03525641025641024 6.469229153539171  -0.038461538461538464 6.269271161520688  0.019230769230769232 6.084436042848141  C 0.07692307692307693 5.8996009241755925  0.25 5.7836588951900865  0.5384615384615384 5.73660995589162  L 5.365384615384615 5.0006301197227465  L 7.528846153846154 0.41335853812224244  C 7.657051282051283 0.13778617937408022  7.814102564102565 0  8 0  C 8.17948717948718 0  8.336538461538462 0.13778617937408022  8.471153846153847 0.41335853812224244  L 10.634615384615385 5.0006301197227465  L 15.461538461538462 5.73660995589162  C 15.750000000000002 5.7836588951900865  15.923076923076925 5.8996009241755925  15.98076923076923 6.084436042848141  Z " fill-rule="nonzero" fill="#f7b75f" stroke="none" transform="matrix(1 0 0 1 318 23 )" />
  </g>
</svg>