<?xml version="1.0" encoding="utf-8"?>
<svg version="1.1" xmlns:xlink="http://www.w3.org/1999/xlink" width="16px" height="16px" xmlns="http://www.w3.org/2000/svg">
  <g transform="matrix(1 0 0 1 -338 -23 )">
    <path d="M 11.625 14.044108380592313  L 10.932692307692308 9.799621928166353  L 13.875 6.805293005671077  L 9.817307692307692 6.180214240705734  L 8 2.3289224952741012  L 6.1826923076923075 6.180214240705734  L 2.125 6.805293005671077  L 5.0673076923076925 9.799621928166353  L 4.365384615384615 14.044108380592313  L 8 12.037807183364839  L 11.625 14.044108380592313  Z M 15.461538461538462 5.73660995589162  C 15.820512820512821 5.797101449275363  16 5.951690821256038  16 6.200378071833649  C 16 6.348246166771686  15.916666666666668 6.5095568157949995  15.75 6.6843100189035916  L 12.259615384615385 10.253308128544424  L 13.086538461538462 15.294265910522999  C 13.092948717948719 15.341314849821467  13.096153846153847 15.408527620247845  13.096153846153847 15.495904221802142  C 13.096153846153847 15.831968073934046  12.964743589743591 16  12.701923076923077 16  C 12.580128205128206 16  12.451923076923077 15.959672337744172  12.317307692307692 15.879017013232515  L 8 13.499684940138627  L 3.6826923076923075 15.879017013232515  C 3.541666666666667 15.959672337744172  3.4134615384615383 16  3.298076923076923 16  C 3.1634615384615383 16  3.0625 15.951270741440874  2.9951923076923075 15.85381222432262  C 2.9278846153846154 15.756353707204369  2.894230769230769 15.637051039697543  2.894230769230769 15.495904221802142  C 2.894230769230769 15.455576559546314  2.900641025641026 15.388363789119932  2.9134615384615383 15.294265910522999  L 3.7403846153846154 10.253308128544424  L 0.2403846153846154 6.6843100189035916  C 0.08012820512820512 6.502835538752363  0 6.341524889729049  0 6.200378071833649  C 0 5.951690821256038  0.17948717948717946 5.797101449275363  0.5384615384615384 5.73660995589162  L 5.365384615384615 5.0006301197227465  L 7.528846153846154 0.41335853812224244  C 7.650641025641026 0.13778617937408022  7.8076923076923075 0  8 0  C 8.192307692307692 0  8.349358974358974 0.13778617937408022  8.471153846153847 0.41335853812224244  L 10.634615384615385 5.0006301197227465  L 15.461538461538462 5.73660995589162  Z " fill-rule="nonzero" fill="#f7b75f" stroke="none" transform="matrix(1 0 0 1 338 23 )" />
  </g>
</svg>