<?xml version="1.0" encoding="utf-8"?>
<svg version="1.1" xmlns:xlink="http://www.w3.org/1999/xlink" width="25px" height="25px" xmlns="http://www.w3.org/2000/svg">
  <g transform="matrix(1 0 0 1 -316 -642 )">
    <path d="M 24.158653846153847 8.963453056080656  C 24.719551282051285 9.057971014492756  25 9.29951690821256  25 9.688090737240076  C 25 9.91913463558076  24.869791666666668 10.171182524679686  24.609375 10.444234404536862  L 19.15564903846154 16.020793950850663  L 20.447716346153847 23.897290485192187  C 20.457732371794872 23.970804452846043  20.462740384615387 24.07582440663726  20.462740384615387 24.21235034656585  C 20.462740384615387 24.43289224952741  20.41015625 24.619302667506826  20.304987980769234 24.771581600504096  C 20.19981971153846 24.923860533501365  20.04707532051282 25  19.846754807692307 25  C 19.65645032051282 25  19.456129807692307 24.936988027725267  19.245793269230766 24.810964083175804  L 12.5 21.093257718966605  L 5.754206730769231 24.810964083175804  C 5.533854166666667 24.936988027725267  5.333533653846153 25  5.153245192307692 25  C 4.942908653846153 25  4.78515625 24.923860533501365  4.679987980769231 24.771581600504096  C 4.574819711538462 24.619302667506826  4.522235576923077 24.43289224952741  4.522235576923077 24.21235034656585  C 4.522235576923077 24.149338374291116  4.532251602564103 24.044318420499895  4.552283653846153 23.897290485192187  L 5.844350961538462 16.020793950850663  L 0.37560096153846156 10.444234404536862  C 0.1252003205128205 10.160680529300567  0 9.90863264020164  0 9.688090737240076  C 0 9.29951690821256  0.2804487179487179 9.057971014492756  0.8413461538461539 8.963453056080656  L 8.383413461538462 7.813484562066791  L 11.763822115384617 0.6458727158160038  C 11.954126602564104 0.21529090527200034  12.19951923076923 0  12.5 0  C 12.800480769230768 0  13.045873397435898 0.21529090527200034  13.236177884615385 0.6458727158160038  L 16.61658653846154 7.813484562066791  L 24.158653846153847 8.963453056080656  Z " fill-rule="nonzero" fill="#f7b75f" stroke="none" transform="matrix(1 0 0 1 316 642 )" />
  </g>
</svg>