<?xml version="1.0" encoding="utf-8"?>
<svg version="1.1" xmlns:xlink="http://www.w3.org/1999/xlink" width="25px" height="25px" xmlns="http://www.w3.org/2000/svg">
  <g transform="matrix(1 0 0 1 -416 -642 )">
    <path d="M 17.082331730769234 15.311909262759926  L 17.818509615384613 14.57151858853182  L 21.6796875 10.633270321361058  L 16.331129807692307 9.81411468178954  L 15.339543269230768 9.65658475110271  L 14.888822115384615 8.711405166981725  L 12.5 3.638941398865783  L 12.5 18.80907372400756  L 13.386418269230768 19.297416509136735  L 18.1640625 21.94391934467549  L 17.262620192307693 16.351606805293006  L 17.082331730769234 15.311909262759926  Z M 24.969951923076923 9.50693131695022  C 25.060096153846157 9.795736189876076  24.93990384615385 10.108170552404955  24.609375 10.444234404536862  L 19.15564903846154 16.020793950850663  L 20.447716346153847 23.897290485192187  C 20.497796474358974 24.243856332703213  20.4677483974359 24.51428271371561  20.357572115384613 24.708569628229363  C 20.247395833333336 24.90285654274312  20.0771233974359 25  19.846754807692307 25  C 19.676482371794872 25  19.47616185897436 24.936988027725267  19.245793269230766 24.810964083175804  L 12.5 21.093257718966605  L 5.754206730769231 24.810964083175804  C 5.523838141025641 24.936988027725267  5.323517628205129 25  5.153245192307692 25  C 4.922876602564103 25  4.752604166666667 24.90285654274312  4.642427884615385 24.708569628229363  C 4.532251602564103 24.51428271371561  4.5022035256410255 24.243856332703213  4.552283653846153 23.897290485192187  L 5.844350961538462 16.020793950850663  L 0.37560096153846156 10.444234404536862  C 0.055088141025641 10.108170552404955  -0.06009615384615385 9.795736189876076  0.030048076923076924 9.50693131695022  C 0.1201923076923077 9.218126444024364  0.390625 9.03696702373451  0.8413461538461539 8.963453056080656  L 8.383413461538462 7.813484562066791  L 11.763822115384617 0.6458727158160038  C 11.96414262820513 0.21529090527200034  12.209535256410257 0  12.5 0  C 12.780448717948719 0  13.025841346153847 0.21529090527200034  13.236177884615385 0.6458727158160038  L 16.61658653846154 7.813484562066791  L 24.158653846153847 8.963453056080656  C 24.609375000000004 9.03696702373451  24.879807692307697 9.218126444024364  24.969951923076923 9.50693131695022  Z " fill-rule="nonzero" fill="#f7b75f" stroke="none" transform="matrix(1 0 0 1 416 642 )" />
  </g>
</svg>